<mxfile host="app.diagrams.net" modified="2021-08-27T10:24:39.069Z" agent="5.0 (X11; Linux x86_64) AppleWebKit/537.36 (KHTML, like Gecko) Chrome/92.0.4515.159 Safari/537.36" etag="5GN-wCmIXswExbWhSrZS" version="14.9.9" type="github">
  <diagram id="I7CHBkKnCYrHu58SfuDM" name="Page-1">
    <mxGraphModel dx="1245" dy="702" grid="1" gridSize="10" guides="1" tooltips="1" connect="1" arrows="1" fold="1" page="1" pageScale="1" pageWidth="1100" pageHeight="1700" math="0" shadow="0">
      <root>
        <mxCell id="0" />
        <mxCell id="1" parent="0" />
        <mxCell id="IQpRgXhFGQUZ7-Aa7Qsy-1" value="" style="rounded=1;whiteSpace=wrap;html=1;" vertex="1" parent="1">
          <mxGeometry x="445" y="40" width="210" height="80" as="geometry" />
        </mxCell>
        <mxCell id="IQpRgXhFGQUZ7-Aa7Qsy-2" value="&lt;font size=&quot;1&quot;&gt;&lt;b style=&quot;font-size: 18px&quot;&gt;Area Cultivated&lt;/b&gt;&lt;/font&gt;" style="text;html=1;strokeColor=none;fillColor=none;align=center;verticalAlign=middle;whiteSpace=wrap;rounded=0;" vertex="1" parent="1">
          <mxGeometry x="455" y="50" width="190" height="20" as="geometry" />
        </mxCell>
        <mxCell id="IQpRgXhFGQUZ7-Aa7Qsy-3" value="&lt;font style=&quot;font-size: 15px&quot;&gt;22,563,006 Acre&lt;/font&gt;" style="text;html=1;strokeColor=none;fillColor=none;align=center;verticalAlign=middle;whiteSpace=wrap;rounded=0;" vertex="1" parent="1">
          <mxGeometry x="455" y="90" width="190" height="20" as="geometry" />
        </mxCell>
        <mxCell id="IQpRgXhFGQUZ7-Aa7Qsy-4" value="" style="rounded=1;whiteSpace=wrap;html=1;" vertex="1" parent="1">
          <mxGeometry x="445" y="220" width="210" height="80" as="geometry" />
        </mxCell>
        <mxCell id="IQpRgXhFGQUZ7-Aa7Qsy-5" value="&lt;font size=&quot;1&quot;&gt;&lt;b style=&quot;font-size: 18px&quot;&gt;Production&lt;/b&gt;&lt;/font&gt;" style="text;html=1;strokeColor=none;fillColor=none;align=center;verticalAlign=middle;whiteSpace=wrap;rounded=0;" vertex="1" parent="1">
          <mxGeometry x="455" y="230" width="190" height="20" as="geometry" />
        </mxCell>
        <mxCell id="IQpRgXhFGQUZ7-Aa7Qsy-6" value="&lt;font style=&quot;font-size: 15px&quot;&gt;27,378,910 Tons&lt;/font&gt;" style="text;html=1;strokeColor=none;fillColor=none;align=center;verticalAlign=middle;whiteSpace=wrap;rounded=0;" vertex="1" parent="1">
          <mxGeometry x="455" y="270" width="190" height="20" as="geometry" />
        </mxCell>
        <mxCell id="IQpRgXhFGQUZ7-Aa7Qsy-7" value="" style="rounded=1;whiteSpace=wrap;html=1;" vertex="1" parent="1">
          <mxGeometry x="445" y="410" width="210" height="80" as="geometry" />
        </mxCell>
        <mxCell id="IQpRgXhFGQUZ7-Aa7Qsy-8" value="&lt;font size=&quot;1&quot;&gt;&lt;b style=&quot;font-size: 18px&quot;&gt;Total&amp;nbsp;&lt;/b&gt;&lt;/font&gt;&lt;span style=&quot;font-size: 18px&quot;&gt;&lt;b&gt;Consumption&lt;/b&gt;&lt;/span&gt;" style="text;html=1;strokeColor=none;fillColor=none;align=center;verticalAlign=middle;whiteSpace=wrap;rounded=0;" vertex="1" parent="1">
          <mxGeometry x="455" y="420" width="190" height="20" as="geometry" />
        </mxCell>
        <mxCell id="IQpRgXhFGQUZ7-Aa7Qsy-9" value="&lt;font style=&quot;font-size: 15px&quot;&gt;loading...&lt;/font&gt;" style="text;html=1;strokeColor=none;fillColor=none;align=center;verticalAlign=middle;whiteSpace=wrap;rounded=0;" vertex="1" parent="1">
          <mxGeometry x="455" y="460" width="190" height="20" as="geometry" />
        </mxCell>
        <mxCell id="IQpRgXhFGQUZ7-Aa7Qsy-10" value="" style="rounded=1;whiteSpace=wrap;html=1;" vertex="1" parent="1">
          <mxGeometry x="80" y="310" width="210" height="80" as="geometry" />
        </mxCell>
        <mxCell id="IQpRgXhFGQUZ7-Aa7Qsy-11" value="&lt;span style=&quot;font-size: 18px&quot;&gt;&lt;b&gt;Gap b/w Demand &amp;amp; Production&lt;/b&gt;&lt;/span&gt;" style="text;html=1;strokeColor=none;fillColor=none;align=center;verticalAlign=middle;whiteSpace=wrap;rounded=0;" vertex="1" parent="1">
          <mxGeometry x="90" y="330" width="190" height="20" as="geometry" />
        </mxCell>
        <mxCell id="IQpRgXhFGQUZ7-Aa7Qsy-12" value="&lt;font style=&quot;font-size: 15px&quot;&gt;loading...&lt;/font&gt;" style="text;html=1;strokeColor=none;fillColor=none;align=center;verticalAlign=middle;whiteSpace=wrap;rounded=0;" vertex="1" parent="1">
          <mxGeometry x="90" y="364" width="190" height="20" as="geometry" />
        </mxCell>
      </root>
    </mxGraphModel>
  </diagram>
</mxfile>
